<?xml version="1.0" encoding="UTF-8" standalone="no"?>
<svg
   xmlns:dc="http://purl.org/dc/elements/1.1/"
   xmlns:cc="http://creativecommons.org/ns#"
   xmlns:rdf="http://www.w3.org/1999/02/22-rdf-syntax-ns#"
   xmlns:svg="http://www.w3.org/2000/svg"
   xmlns="http://www.w3.org/2000/svg"
   id="svg16"
   preserveAspectRatio="xMidYMid meet"
   viewBox="0 0 165.000000 62.000000"
   height="40.000000pt"
   width="110.000000pt"
   version="1.0">
  <defs
     id="defs20" />
  <metadata
     id="metadata2">
Created by potrace 1.16, written by Peter Selinger 2001-2019
<rdf:RDF>
  <cc:Work
     rdf:about="">
    <dc:format>image/svg+xml</dc:format>
    <dc:type
       rdf:resource="http://purl.org/dc/dcmitype/StillImage" />
  </cc:Work>
</rdf:RDF>
</metadata>
  <g
     id="g14"
     stroke="none"
     fill="#000000"
     transform="translate(0.000000,62.000000) scale(0.100000,-0.100000)">
    <path
       id="path4"
       d="M168 346 c-3 -220 -3 -225 -27 -250 -13 -14 -37 -26 -54 -28 -17 -2 -33 -9 -35 -17 -4 -11 5 -13 42 -9 60 7 112 46 126 96 5 20 10 126 10 235 l0 197 -29 0 -30 0 -3 -224z" />
    <path
       id="path6"
       d="M620 400 l0 -172 33 -33 c56 -56 154 -59 208 -6 53 54 46 171 -14 215 -23 17 -42 21 -97 20 l-69 -1 -3 71 c-3 69 -4 71 -30 74 l-28 3 0 -171z m196 -21 c15 -16 19 -36 19 -89 0 -86 -18 -110 -81 -110 -59 0 -74 23 -74 112 0 55 4 72 20 88 28 28 90 27 116 -1z" />
    <path
       id="path8"
       d="M990 360 c0 -192 1 -200 20 -200 18 0 20 8 22 93 l3 92 73 3 72 3 0 29 0 29 -72 3 -73 3 -3 39 c-2 24 2 42 10 47 7 5 50 9 96 9 81 0 82 0 82 25 l0 25 -115 0 -115 0 0 -200z" />
    <path
       id="path10"
       d="M1309 543 c5 -10 35 -51 65 -92 l56 -75 0 -108 0 -108 25 0 25 0 0 110 c0 61 5 116 10 123 24 29 87 114 103 140 17 27 17 27 -7 27 -18 0 -35 -15 -71 -65 -25 -36 -52 -65 -60 -65 -7 0 -23 12 -34 28 -12 15 -24 32 -28 37 -5 6 -16 22 -26 38 -20 32 -75 41 -58 10z" />
    <path
       id="path12"
       d="M351 412 c-49 -26 -74 -75 -67 -134 6 -60 22 -85 68 -109 98 -51 208 10 208 116 0 113 -111 180 -209 127z m129 -34 c29 -31 29 -145 0 -176 -31 -33 -92 -30 -119 4 -35 44 -26 160 13 186 24 16 85 8 106 -14z" />
  </g>
</svg>
